<svg id="SvgjsSvg1075" width="288" height="288" xmlns="http://www.w3.org/2000/svg" version="1.1" xmlns:xlink="http://www.w3.org/1999/xlink" xmlns:svgjs="http://svgjs.com/svgjs"><defs id="SvgjsDefs1076"></defs><g id="SvgjsG1077" transform="matrix(0.9167,0,0,0.9167,11.99261816520692,11.998115169525164)"><svg xmlns="http://www.w3.org/2000/svg" viewBox="0 0 46 46" width="288" height="288"><path fill="#fba83b" d="M23,40a83.45,83.45,0,0,1-11.87-.85,5.08,5.08,0,0,1-4.28-4.28,83.35,83.35,0,0,1,0-23.73,5.08,5.08,0,0,1,4.28-4.28,83.35,83.35,0,0,1,23.73,0,5.08,5.08,0,0,1,4.28,4.28,83.34,83.34,0,0,1,0,23.73,5.08,5.08,0,0,1-4.28,4.28A83.45,83.45,0,0,1,23,40Z" class="colorfbb03b svgShape"></path><path fill="#ffe0b8" d="M32,23a3,3,0,0,1-3,3H26v3a3,3,0,0,1-6,0V26H17a3,3,0,0,1,0-6h3V17a3,3,0,0,1,6,0v3h3A3,3,0,0,1,32,23Z" class="colorf6ffb8 svgShape"></path></svg></g></svg>