<svg xmlns="http://www.w3.org/2000/svg" viewBox="0 0 512 512"><path fill="#231f20" d="M8.62 85.67l-.3-.31q-2.21-2.3-4-4.58A26.48 26.48 0 0 0 1.07 93.44v325a27 27 0 0 0 1.62 9.24c1.94-1.78 4.06-3.59 6.34-5.43l203.17-168zM224 244.46l4.78 4 16.79 13.93a11.83 11.83 0 0 0 16.78 0l.31-.31 17-13.68L493.32 75.06a42.83 42.83 0 0 0 4.39-4.8 26.93 26.93 0 0 0-13.86-3.76H28A26.3 26.3 0 0 0 14.88 70a52.23 52.23 0 0 0 4 4.72z"/><path fill="#231f20" d="M493.53 433.36L284.28 263.83l-11.6 9.35a26.83 26.83 0 0 1-37.55 0L224 263.92 18.52 433.86q-4 3.2-6.92 6A26.73 26.73 0 0 0 28 445.5H483.85A27 27 0 0 0 500.2 440 40.93 40.93 0 0 0 493.53 433.36zM508 81.32a58 58 0 0 1-4.62 4.85l-.41.36L296.2 254.19 503 421.73a61.19 61.19 0 0 1 6.32 5.88 26.89 26.89 0 0 0 1.61-9.18v-325A26.25 26.25 0 0 0 508 81.32z"/><polygon fill="#fff" points="223.96 244.46 245.53 262.34 228.74 248.41 223.96 244.46"/></svg>