<svg xmlns="http://www.w3.org/2000/svg" data-name="Layer 1" viewBox="0 0 64 64"><path d="M61.31,47.154,55.777,44a49.547,49.547,0,0,0-14.351-5.427L30.434,36.26a3.383,3.383,0,0,0-3.827,1.9A3.95,3.95,0,0,0,28.7,43.3l8.351,3.568-4.107-.345a33.069,33.069,0,0,1-17.489-6.707,5.453,5.453,0,0,0-7.374.7L7.058,41.7a1,1,0,0,0,.188,1.476l13.666,9.448a25.5,25.5,0,0,0,4.727,2.846,26.8,26.8,0,0,0,11.006,2.447l12.4.084a6.643,6.643,0,0,1,4.524,1.513l2.884,2.435a1,1,0,0,0,.646.237,1.026,1.026,0,0,0,.293-.044,1,1,0,0,0,.669-.684L61.776,48.3A1,1,0,0,0,61.31,47.154ZM56.555,59.418l-1.7-1.434a8.506,8.506,0,0,0-5.488-1.992c-.12,0-.241,0-.361.008l-12.349-.085a24.8,24.8,0,0,1-10.179-2.262,23.641,23.641,0,0,1-4.392-2.648L9.3,42.162l.3-.345a3.471,3.471,0,0,1,4.637-.422,35.064,35.064,0,0,0,18.544,7.116l10.285.866a.989.989,0,0,0,1.055-.755,1,1,0,0,0-.578-1.161L29.515,41.469a1.934,1.934,0,0,1-1.072-2.522,1.4,1.4,0,0,1,1.578-.73l10.993,2.314a47.525,47.525,0,0,1,13.773,5.208l4.853,2.766Z"/><path d="M48,38V29.733A4.828,4.828,0,0,0,43.111,25h-.142A4.986,4.986,0,0,0,38,16.424v-.691A4.828,4.828,0,0,0,33.111,11h-.142a5,5,0,1,0-5.938,0h-.142A4.828,4.828,0,0,0,22,15.733v.691A4.95,4.95,0,0,0,20,16a4.985,4.985,0,0,0-2.969,9h-.142A4.828,4.828,0,0,0,12,29.733V38h2V29.733A2.824,2.824,0,0,1,16.889,27h6.222A2.824,2.824,0,0,1,26,29.733V35h2V29.733A4.828,4.828,0,0,0,23.111,25h-.142a4.932,4.932,0,0,0,1-7H24V15.733A2.824,2.824,0,0,1,26.889,13h6.222A2.824,2.824,0,0,1,36,15.733V18h.026a4.932,4.932,0,0,0,1,7h-.142A4.828,4.828,0,0,0,32,29.733V35h2V29.733A2.824,2.824,0,0,1,36.889,27h6.222A2.824,2.824,0,0,1,46,29.733V38ZM30,4a3,3,0,1,1-3,3A3,3,0,0,1,30,4ZM20,24a3,3,0,1,1,3-3A3,3,0,0,1,20,24Zm20-6a3,3,0,1,1-3,3A3,3,0,0,1,40,18Z"/></svg>