<?xml version="1.0" encoding="UTF-8" standalone="no"?>
<svg
   xmlns:dc="http://purl.org/dc/elements/1.1/"
   xmlns:cc="http://creativecommons.org/ns#"
   xmlns:rdf="http://www.w3.org/1999/02/22-rdf-syntax-ns#"
   xmlns:svg="http://www.w3.org/2000/svg"
   xmlns="http://www.w3.org/2000/svg"
   xmlns:sodipodi="http://sodipodi.sourceforge.net/DTD/sodipodi-0.dtd"
   xmlns:inkscape="http://www.inkscape.org/namespaces/inkscape"
   data-name="Layer 2"
   viewBox="0 0 32 32"
   version="1.1"
   id="svg924"
   sodipodi:docname="lock.svg"
   inkscape:version="0.92.3 (2405546, 2018-03-11)">
  <metadata
     id="metadata930">
    <rdf:RDF>
      <cc:Work
         rdf:about="">
        <dc:format>image/svg+xml</dc:format>
        <dc:type
           rdf:resource="http://purl.org/dc/dcmitype/StillImage" />
      </cc:Work>
    </rdf:RDF>
  </metadata>
  <defs
     id="defs928" />
  <sodipodi:namedview
     pagecolor="#ffffff"
     bordercolor="#666666"
     borderopacity="1"
     objecttolerance="10"
     gridtolerance="10"
     guidetolerance="10"
     inkscape:pageopacity="0"
     inkscape:pageshadow="2"
     inkscape:window-width="768"
     inkscape:window-height="480"
     id="namedview926"
     showgrid="false"
     inkscape:zoom="7.38"
     inkscape:cx="16.006892"
     inkscape:cy="16.025868"
     inkscape:window-x="475"
     inkscape:window-y="163"
     inkscape:window-maximized="0"
     inkscape:current-layer="svg924" />
  <path
     d="M16,4a6,6,0,0,1,5.93,5.14,1,1,0,0,0,2-.28A8,8,0,0,0,8,10v2H5a1,1,0,0,0-1,1V29a1,1,0,0,0,1,1H27a1,1,0,0,0,1-1V13a1,1,0,0,0-1-1H10V10A6,6,0,0,1,16,4Zm1,18.82V24a1,1,0,0,1-2,0V22.82a3,3,0,1,1,2,0Z"
     id="path922"
     style="fill:#0071c6;fill-opacity:0.70588237" />
</svg>
