<svg xmlns="http://www.w3.org/2000/svg" viewBox="0 0 480.3 471.59">
  <defs>
    <style>
      .cls-1,.cls-16,.cls-18,.cls-19{fill:none}.cls-1{stroke:#008ef8}.cls-1,.cls-16,.cls-18,.cls-19{stroke-linecap:round;stroke-linejoin:round}.cls-2{fill:#c1e3f7}.cls-4{fill:#ff5061}.cls-5{fill:#439916}.cls-7{fill:#ffcd52}.cls-8{fill:#008ef8}.cls-12{fill:#fda01f}.cls-14{fill:#f46534}.cls-16{stroke:#ff5061}.cls-17{fill:#fff}.cls-18{stroke:#439916}.cls-19{stroke:#ffcd52}
    </style>
  </defs>
  <g id="Layer_2" data-name="Layer 2">
    <g id="Layer_1-2" data-name="Layer 1">
      <path class="cls-1" transform="rotate(-164.89 413.944 353.687)" d="M374.57 325.98h78.73v55.44h-78.73z"/>
      <circle class="cls-2" cx="415.82" cy="392.02" r="35.21"/>
      <rect x="423.44" y="192.56" width="48.59" height="48.59" rx="5.52" transform="rotate(45 447.735 216.858)" stroke="#fda01f" stroke-linecap="round" stroke-linejoin="round" fill="none"/>
      <rect class="cls-2" x="26.49" y="283.65" width="97.06" height="98.1" rx="13" transform="rotate(125.07 75.024 332.701)"/>
      <rect class="cls-1" x="17.86" y="275.54" width="114.32" height="114.32" rx="13" transform="rotate(125.07 75.024 332.701)"/>
      <rect class="cls-1" x="372.15" y="149.36" width="88.4" height="88.4" rx="13" transform="rotate(45 416.346 193.556)"/>
      <path class="cls-4" d="M111.31 220.16s1-11.8-8.72-18.57c0 0-1 5 0 7.75 0 0-1.73-4.06-5.29-4.92 0 0-2 8.73 2 12.42 0 0-2.22-3.08-4.68-2.71a6.47 6.47 0 002.19 6.87s-5.66-2.58-9.47-2.46c0 0 .74 8.48 3.94 9.22 0 0-3.45-.74-3.94.37 0 0 2 5.41 6.52 7.62 0 0-5.29-1-8.85 4.55 0 0 6.39 1.35 11.18.49 0 0-4.55 1.72-4.79 5 0 0 9.46 2.09 12.66-2z"/>
      <path class="cls-5" d="M183.84 242.09c-8.12-.85-12.34 10.21-23 9-6.72-.76-11.3-5.87-15-10-10.25-11.43-7.15-20.1-17-28-2.18-1.75-7.87-6.31-14-5-9.54 2-12.74 16.76-13 18-1.94 9.45 1.23 17.08 7 31 2.92 7 5.5 13.13 11 20 3.52 4.41 8.21 10.26 16 14 5 2.4 10.67 3.66 24 3 24.15-1.18 36.23-1.78 41-9 9.08-13.72-4.68-41.69-17-43z"/>
      <path d="M200.84 285.09c9.08-13.72-4.68-41.69-17-43-6.55-.69-10.57 6.37-17.46 8.5 4.35 11.74 8.93 25.73 13.41 42.28 11.3-1.06 17.83-2.87 21.05-7.78z" fill="#336d11"/>
      <path class="cls-4" d="M165.08 102.93s1.44-17.28-12.78-27.18c0 0-1.44 7.38 0 11.34 0 0-2.52-5.94-7.74-7.2 0 0-2.88 12.78 2.88 18.18 0 0-3.24-4.5-6.84-4a9.46 9.46 0 003.24 10.08s-8.28-3.78-13.86-3.6c0 0 1.08 12.42 5.76 13.5 0 0-5-1.08-5.76.54 0 0 2.88 7.92 9.54 11.16 0 0-7.74-1.44-13 6.66 0 0 9.36 2 16.38.72 0 0-6.66 2.52-7 7.38 0 0 13.86 3.06 18.54-2.88zm149.85 40.28s9.33 9.54 22.25 6.25c0 0-3.57-4.55-6.6-5.71 0 0 4.72 1.53 8.09-.88 0 0-6-8.11-12-7.47 0 0 4.25.38 5.75-2a7.29 7.29 0 00-7.5-3.19s6.37-2.92 9.07-6.25c0 0-7.77-5.63-10.75-3.45 0 0 3.16-2.39 2.58-3.62 0 0-6.06-2.32-11.3-.07 0 0 4.74-3.78 2.66-10.9 0 0-5.87 4.45-8.67 9.17 0 0 1.89-5.14-.76-7.8 0 0-8.76 6.52-7.66 12.24z"/>
      <path class="cls-5" d="M260.28 331.09a155.4 155.4 0 002.06-44.5c-1.43-12.95-1.4-26.06-3-39-.43-3.46-.66-4.93 0-7 4-12.44 27.56-6.5 44-19 14.89-11.3 16.36-32 18-55 1-14.57 2.47-34.59-10-45-1.36-1.14-8.75-7-16-5-8.8 2.5-12 15.24-14 23-3.5 13.84.25 16.44-3 32-2 9.78-4.39 20.34-13 25-3.44 1.87-10 3.95-14 1-5.77-4.26-1-15.28-1-30 0-24.91-13.53-43.51-17-48-4.47-5.77-18.15-23.44-41-26-4.42-.49-22.08-2.46-34 9-9.09 8.76-10 20.63-11 35-1.07 14.81 1 27 4 40a334 334 0 0017 53c9.16 21 20.75 53.13 30.5 100.5z"/>
      <path class="cls-7" d="M152.09 331.09h146v29h-146z"/>
      <path class="cls-8" d="M280.09 471.09h-110l-10-111h130l-10 111z"/>
      <path fill="#0234c1" d="M160.99 370.09h128.2l.9-10h-130l.9 10z"/>
      <path d="M297.34 122.59s-4-10 0-16" stroke="#c5e89e" stroke-linecap="round" stroke-linejoin="round" fill="none"/>
      <path d="M180.84 98.55a44.89 44.89 0 011.68-7.47 21.7 21.7 0 011.48-3.53 8.51 8.51 0 012.36-3 8.32 8.32 0 00-2.14 3.07 21.29 21.29 0 00-1.2 3.56 43.54 43.54 0 00-1.16 7.42.5.5 0 11-1-.08zm-7.91 1.34a17.25 17.25 0 01-1.38-2.75 13 13 0 01-.83-2.94 7.78 7.78 0 01.09-3 5.76 5.76 0 011.53-2.57 5.56 5.56 0 00-1.28 2.62 7.4 7.4 0 00.15 2.89 12.14 12.14 0 001 2.73 16.18 16.18 0 001.52 2.47.5.5 0 11-.8.6zm11.93 17.83a17.25 17.25 0 01-.28-3.34 16.5 16.5 0 01.37-3.29 11.49 11.49 0 011.21-3.07 9.21 9.21 0 012.18-2.43 9.15 9.15 0 00-2 2.55 11.17 11.17 0 00-.94 3 15.39 15.39 0 00-.11 3.18 15.89 15.89 0 00.5 3.11.5.5 0 01-.35.62.51.51 0 01-.62-.36zm-2 6a3.87 3.87 0 00-.69-1.21 8.63 8.63 0 00-1.09-1.09 13.53 13.53 0 00-2.66-1.7 23.48 23.48 0 00-3-1.23c-1-.35-2.06-.63-3.11-.9 1.07.19 2.13.39 3.18.66a25.05 25.05 0 013.11 1 14.91 14.91 0 012.91 1.57 6.22 6.22 0 012.29 2.64.51.51 0 01-.28.66.5.5 0 01-.65-.28.14.14 0 010-.06zm27.03 22.65a31.48 31.48 0 001.37-3 25.92 25.92 0 001-3.17 16.67 16.67 0 00.5-3.29 9.55 9.55 0 00-.43-3.31 9.54 9.54 0 01.68 3.31 16.1 16.1 0 01-.26 3.39 27 27 0 01-.79 3.31 30.43 30.43 0 01-1.18 3.22.5.5 0 01-.92-.4zm6.16.82a14.1 14.1 0 013.3-1.48 12.06 12.06 0 013.52-.57 9.19 9.19 0 013.49.63 10.12 10.12 0 013 1.82 10 10 0 00-3.06-1.59 8.85 8.85 0 00-3.39-.36 12.1 12.1 0 00-3.3.77 13.77 13.77 0 00-3 1.59.5.5 0 11-.59-.81zm2.86-35.84a14.38 14.38 0 012.22-2.61 13.67 13.67 0 012.72-2 9.78 9.78 0 013.15-1.14 10 10 0 013.32 0 9.71 9.71 0 00-3.27.25 9.49 9.49 0 00-3 1.32 13.27 13.27 0 00-2.45 2.1 14 14 0 00-1.88 2.58.5.5 0 01-.68.19.49.49 0 01-.19-.68zm6.21 4.8a25 25 0 014.31-1.41 23.1 23.1 0 014.46-.59 16.27 16.27 0 014.45.51 12.78 12.78 0 014 1.93 12.68 12.68 0 00-4.06-1.69 16 16 0 00-4.37-.25 22.41 22.41 0 00-4.29.82 24.21 24.21 0 00-4.06 1.57.5.5 0 01-.68-.22.51.51 0 01.22-.67zm14.22 28.94a12.23 12.23 0 003.41-.53 11.78 11.78 0 003.17-1.49 10.75 10.75 0 002.6-2.39 13.29 13.29 0 001.82-3.09 13.28 13.28 0 01-1.62 3.24 11.27 11.27 0 01-2.51 2.65 12.23 12.23 0 01-3.22 1.79 12.6 12.6 0 01-3.65.82.5.5 0 01-.07-1h.07zm3.84 7.03a11.64 11.64 0 016.13.24 10.45 10.45 0 012.74 1.3 12.87 12.87 0 012.29 1.93 12.68 12.68 0 00-2.42-1.72 10.31 10.31 0 00-2.74-1 10.42 10.42 0 00-2.89-.26 9.83 9.83 0 00-2.79.49.5.5 0 01-.63-.31.5.5 0 01.31-.64zm-90.69 3.95a28.07 28.07 0 01-6.43.84 11.65 11.65 0 01-3.22-.4 3.76 3.76 0 01-2.5-1.92 3.63 3.63 0 002.56 1.68 11 11 0 003.14.14 28 28 0 006.16-1.29.5.5 0 11.3.95zm-.23 10.02a13 13 0 00-2.59-.2 13.5 13.5 0 00-2.61.32 10.46 10.46 0 00-2.5.88 10.08 10.08 0 00-2.22 1.5 10.53 10.53 0 012.09-1.72 11 11 0 012.49-1.14 13.87 13.87 0 015.5-.63.5.5 0 11-.09 1h-.07zm29.64 18.74a37.33 37.33 0 01-1.63-4 29.39 29.39 0 01-1.12-4.11 15.17 15.17 0 01-.27-4.25 7.14 7.14 0 011.46-3.93 7.06 7.06 0 00-1.21 3.94 14.44 14.44 0 00.51 4.13 32.29 32.29 0 003.14 7.7.5.5 0 01-.88.49zm-1.62 4.26a31.37 31.37 0 01-6.41-1.9 16.42 16.42 0 01-5.53-3.6 16.12 16.12 0 005.71 3.13 31.19 31.19 0 006.35 1.38.5.5 0 01.44.55.5.5 0 01-.55.45zM168.8 212.8a23.74 23.74 0 01-2.18 3.43 16.83 16.83 0 01-2.78 2.94 8.57 8.57 0 01-3.57 1.86 6.46 6.46 0 01-3.93-.44 6.34 6.34 0 003.87.2 8.2 8.2 0 003.3-2 15.94 15.94 0 002.5-3 24.23 24.23 0 001.88-3.41.51.51 0 01.66-.26.5.5 0 01.26.66zm3.92 6.13a37.28 37.28 0 00-2.78 3.44 33.85 33.85 0 00-2.37 3.75 20.83 20.83 0 00-1.73 4.07 11.89 11.89 0 00-.5 4.4 11.77 11.77 0 01.26-4.46 20.87 20.87 0 011.53-4.24 33.06 33.06 0 012.19-3.95 40.72 40.72 0 012.65-3.68.5.5 0 01.7-.07.5.5 0 01.07.71zm56.13.73A19.72 19.72 0 00228 216a20.07 20.07 0 00-1.58-3.51 17.87 17.87 0 00-2.22-3.17 19.42 19.42 0 00-2.82-2.69 20.11 20.11 0 013 2.52 19.33 19.33 0 012.46 3.08 20.9 20.9 0 011.85 3.5 19.67 19.67 0 011.18 3.84.51.51 0 01-.4.59.51.51 0 01-.59-.4v-.06zm5-.99a40.38 40.38 0 01-.2-4.65 32.57 32.57 0 01.37-4.62 16.88 16.88 0 011.26-4.45 6.73 6.73 0 013.06-3.36 6.65 6.65 0 00-2.83 3.46 16.32 16.32 0 00-1 4.41 37.1 37.1 0 00.33 9.06.5.5 0 11-1 .15zm-11.13 40.89a29.37 29.37 0 01-.39-3.71 23.13 23.13 0 01.1-3.72 13.5 13.5 0 01.81-3.61 7.64 7.64 0 012-3.06 7.64 7.64 0 00-1.78 3.14 13.9 13.9 0 00-.54 3.57 23 23 0 00.15 3.62 28 28 0 00.62 3.55.5.5 0 01-.37.61.49.49 0 01-.6-.37zm-5.02 7.05a44.52 44.52 0 00-4.06-4.3 22.68 22.68 0 00-2.29-1.86 5.66 5.66 0 00-2.7-1.12 5.77 5.77 0 012.83.91 23.19 23.19 0 012.49 1.69 47.05 47.05 0 014.47 4 .5.5 0 010 .71.5.5 0 01-.71 0zM190.63 272a19.19 19.19 0 01-2.92 1.5 16 16 0 01-3.11 1 11 11 0 01-3.24.18 7.68 7.68 0 01-3-1.06 7.44 7.44 0 003 .81 10.52 10.52 0 003.11-.42 15.49 15.49 0 002.91-1.16 20.21 20.21 0 002.65-1.63.51.51 0 01.71.1.5.5 0 01-.11.7zm-.29 10.09a18.57 18.57 0 00-3.05.22 16.58 16.58 0 00-3 .72 12.43 12.43 0 00-2.76 1.36 9 9 0 00-2.19 2.2 9.17 9.17 0 012-2.4 12.57 12.57 0 012.73-1.63 18 18 0 013-1 19.79 19.79 0 013.19-.48.51.51 0 01.53.48.49.49 0 01-.47.52zM155 268a16.7 16.7 0 01-1.85-2.55 13.27 13.27 0 01-1.32-2.83 8.89 8.89 0 01-.44-3.07 6.6 6.6 0 011-2.91 6.51 6.51 0 00-.71 2.91 8.45 8.45 0 00.66 2.9 12.72 12.72 0 001.47 2.59 16.2 16.2 0 001.93 2.25.5.5 0 01-.69.73zm-4.12 6.79a8.59 8.59 0 00-1.7-2.53 7 7 0 00-2.57-1.73 7.56 7.56 0 00-3.1-.52 9.68 9.68 0 00-1.6.18c-.53.11-1 .27-1.57.4.51-.17 1-.37 1.54-.53a12.35 12.35 0 011.61-.3 7.83 7.83 0 013.29.3 7.74 7.74 0 012.91 1.65 9.46 9.46 0 012.11 2.69.5.5 0 01-.89.46zm-16.02-43.32a13.24 13.24 0 011.21-2.68 9.13 9.13 0 011.84-2.27 5.45 5.45 0 012.61-1.26 5.73 5.73 0 012.82.33 5.78 5.78 0 00-2.77-.09 5.08 5.08 0 00-2.31 1.39 8.12 8.12 0 00-1.53 2.26 12.27 12.27 0 00-.9 2.57.5.5 0 01-1-.22zm-2.86-5.23a15.41 15.41 0 002.11-2.67 14.32 14.32 0 001.44-3.13 10.42 10.42 0 00-.2-6.85 10.92 10.92 0 01.93 3.42 10.42 10.42 0 01-.25 3.56 14.6 14.6 0 01-1.27 3.37 15 15 0 01-2.06 3 .48.48 0 01-.7 0 .49.49 0 01-.05-.7zM111.59 256a42.62 42.62 0 00-4.59 2.8 22.45 22.45 0 00-2.08 1.68 6.52 6.52 0 00-1.61 2.11 6.56 6.56 0 011.43-2.28 20.56 20.56 0 012-1.9 42.3 42.3 0 014.37-3.25.51.51 0 01.7.15.5.5 0 01-.15.69zm-2.25-6.91a8.51 8.51 0 00-2.41.45 14 14 0 00-2.36 1 20.22 20.22 0 00-2.2 1.38c-.7.51-1.37 1.07-2 1.65a25.13 25.13 0 011.88-1.84 17.5 17.5 0 012.1-1.62 15.64 15.64 0 012.34-1.29 9.14 9.14 0 012.68-.75.51.51 0 01.55.45.5.5 0 01-.45.55h-.1zm6.93-20.45a16.44 16.44 0 01-3.26-1 12.43 12.43 0 01-2.94-1.68 7.8 7.8 0 01-2.16-2.59 6.71 6.71 0 01-.57-3.27 6.61 6.61 0 00.79 3.16 7.42 7.42 0 002.24 2.29 11.46 11.46 0 002.91 1.39 15.75 15.75 0 003.13.72.52.52 0 01.44.56.51.51 0 01-.56.44zm1.62-2.82a16 16 0 01-.75-2.35 11.57 11.57 0 01-.34-2.42 7.3 7.3 0 01.28-2.42 4.85 4.85 0 011.26-2 4.74 4.74 0 00-1 2.1 7 7 0 000 2.32 11.06 11.06 0 00.56 2.25 14.34 14.34 0 00.93 2.11.5.5 0 01-.2.68.49.49 0 01-.68-.19zm6.8 52.18a31.3 31.3 0 01-3.52 2.6 27.61 27.61 0 01-3.83 2 25.52 25.52 0 003.53-2.45 29.66 29.66 0 003.12-2.9.5.5 0 01.71 0 .51.51 0 010 .71zm5.15 1.59a21.62 21.62 0 01-.47 3.43 16.25 16.25 0 01-1.07 3.27 8.62 8.62 0 01-1.93 2.84 5.78 5.78 0 01-3 1.46 5.54 5.54 0 002.85-1.64 8.22 8.22 0 001.65-2.85 15.37 15.37 0 00.79-3.21 21.59 21.59 0 00.21-3.3.5.5 0 01.49-.51.49.49 0 01.51.49zm27 9a22.48 22.48 0 00.13 3 20.5 20.5 0 00.51 2.92 9.77 9.77 0 002.86 5.13 7.88 7.88 0 01-2-2.22 13.14 13.14 0 01-1.3-2.76 20.12 20.12 0 01-.77-3 23.69 23.69 0 01-.39-3.06.5.5 0 01.47-.52.49.49 0 01.53.47zm3.99-.09a11.19 11.19 0 00.93 2.61 16.46 16.46 0 001.47 2.44 18.57 18.57 0 001.9 2.17 20.8 20.8 0 002.21 1.87 20.55 20.55 0 01-2.34-1.69 19.41 19.41 0 01-2.12-2 17.18 17.18 0 01-1.74-2.39 11.9 11.9 0 01-1.25-2.78.51.51 0 01.35-.62.5.5 0 01.61.35zm36.7 17.56a25.17 25.17 0 01-3.25.87 19.43 19.43 0 01-3.32.4 8.69 8.69 0 01-3.31-.47 3.82 3.82 0 01-2.31-2.27 3.73 3.73 0 002.39 2 8.22 8.22 0 003.2.2 22.76 22.76 0 006.23-1.7.5.5 0 11.39.93zm4.74 9.03a35.71 35.71 0 00-4.27-.44 29.43 29.43 0 00-4.3.13 14.94 14.94 0 00-4.16 1 6.65 6.65 0 00-3.2 2.77 6.66 6.66 0 013.1-3 14.91 14.91 0 014.19-1.31 29.22 29.22 0 014.38-.39 36.34 36.34 0 014.41.2.5.5 0 01-.11 1zM228 311.9a24.51 24.51 0 00-2.5-2.81 18.67 18.67 0 00-2.94-2.38 9.91 9.91 0 00-3.45-1.49 6.27 6.27 0 00-3.72.37 6.42 6.42 0 013.77-.61 10.05 10.05 0 013.66 1.31 19 19 0 013.18 2.24 26 26 0 012.79 2.76.5.5 0 01-.76.65zm5.85-4.21a19.63 19.63 0 01-.12-4.26 18.76 18.76 0 01.77-4.15 13.66 13.66 0 011.86-3.77 12.52 12.52 0 013-2.92 12 12 0 00-2.77 3.06 13 13 0 00-1.58 3.76 17.9 17.9 0 00-.51 4 19.29 19.29 0 00.35 4 .5.5 0 01-.39.59.49.49 0 01-.59-.39zm57-182.01a7.28 7.28 0 00-.67-1.81 12.72 12.72 0 00-1.06-1.73 17.73 17.73 0 00-2.8-3 28 28 0 00-3.33-2.49l-1.79-1.07-1.86-1 1.91.87 1.87 1a29.3 29.3 0 013.52 2.32 19 19 0 013.07 2.94 13.69 13.69 0 011.24 1.77 7.67 7.67 0 01.88 2.06.5.5 0 01-.36.61.51.51 0 01-.61-.36v-.08zm-7.6 23.41a32.88 32.88 0 01-6.92-2.44 14.26 14.26 0 01-3.07-2 5.46 5.46 0 01-1.92-3 5.31 5.31 0 002.08 2.86 13.62 13.62 0 003.12 1.74 31.34 31.34 0 006.89 1.91.5.5 0 11-.16 1zm-1.13 4.91a38.77 38.77 0 00-6.16-2.59 21.8 21.8 0 00-3.26-.79 11.82 11.82 0 00-3.36-.07 11.61 11.61 0 013.38-.17 20.24 20.24 0 013.37.55 34.06 34.06 0 013.28.94c1.08.37 2.13.77 3.19 1.24a.49.49 0 01.26.66.5.5 0 01-.66.25zm16.71 16.25a34 34 0 001.47-4.92 28.39 28.39 0 00.68-5.12 18.86 18.86 0 00-.45-5.13 12.69 12.69 0 00-2.24-4.65 12.84 12.84 0 012.48 4.58 19.54 19.54 0 01.71 5.21 28 28 0 01-.45 5.25 33.26 33.26 0 01-1.27 5.14.49.49 0 01-.63.32.51.51 0 01-.32-.64zm4-3.01a47.26 47.26 0 013.71-6.54 18 18 0 012.41-2.89 6.59 6.59 0 011.52-1.11 2.64 2.64 0 011.82-.27 2.54 2.54 0 00-1.76.38 6.55 6.55 0 00-1.4 1.17 18.25 18.25 0 00-2.17 3 45.26 45.26 0 00-3.2 6.66.5.5 0 11-.93-.37zm9.56 15.86a24.7 24.7 0 009.67-1.23 20 20 0 004.46-2.11 19.64 19.64 0 003.82-3.17 19.69 19.69 0 01-3.68 3.38 20.51 20.51 0 01-4.43 2.37 25.38 25.38 0 01-9.93 1.75.5.5 0 110-1h.06zm1.23 6.08a29.34 29.34 0 013.15 2.71 26 26 0 012.72 3.12 17 17 0 012.06 3.58 10.84 10.84 0 01.79 4 10.53 10.53 0 00-1-3.9 16.51 16.51 0 00-2.22-3.37 24.14 24.14 0 00-2.84-2.88 27.51 27.51 0 00-3.2-2.43.5.5 0 11.54-.84zM286 198.12a15.09 15.09 0 003.18-1.61 14.32 14.32 0 002.75-2.34 11.32 11.32 0 002-3 11.86 11.86 0 001-3.52 12.21 12.21 0 01-.78 3.62 11.65 11.65 0 01-1.86 3.24 15.17 15.17 0 01-2.69 2.62 16 16 0 01-3.28 1.94.5.5 0 01-.66-.26.51.51 0 01.26-.66h.08zm3.31 2.27a17 17 0 013.26-.6 14.48 14.48 0 013.29.06 9.74 9.74 0 013.12 1 7.73 7.73 0 012.4 2.15 7.62 7.62 0 00-2.52-1.93 9.19 9.19 0 00-3.05-.72 13.2 13.2 0 00-3.14.18 16 16 0 00-3 .81.5.5 0 01-.65-.29.5.5 0 01.29-.64zm-.49 21.07a26.73 26.73 0 001.49 4.09 23.44 23.44 0 002.17 3.8 16.76 16.76 0 003 3.21 12.25 12.25 0 003.89 2 12.2 12.2 0 01-4-1.83 16.94 16.94 0 01-3.22-3.11 23.36 23.36 0 01-2.44-3.77 25.93 25.93 0 01-1.78-4.15.5.5 0 01.95-.31zm-11.11 4.8a37.69 37.69 0 012.67 3.67 30 30 0 012.19 4 17.09 17.09 0 011.36 4.3 7.14 7.14 0 01-.59 4.4 7.06 7.06 0 00.34-4.35 16.35 16.35 0 00-1.56-4.13 29.27 29.27 0 00-2.36-3.76 36.81 36.81 0 00-2.79-3.42.5.5 0 11.73-.68zm-23.05 36.95a7.22 7.22 0 002 1.06 11.7 11.7 0 002.35.58 16.38 16.38 0 004.89-.08 26.86 26.86 0 004.81-1.2l2.32-.92 2.26-1.06-2.21 1.18-2.28 1a27.64 27.64 0 01-4.82 1.46 17.14 17.14 0 01-5.06.34 13.79 13.79 0 01-2.53-.49A8.17 8.17 0 01254 264a.5.5 0 11.58-.82zm.78 6.89a60.11 60.11 0 017.8 2.52 27.19 27.19 0 017.1 4 27.29 27.29 0 00-7.27-3.51 59.53 59.53 0 00-7.83-2 .5.5 0 11.18-1zm1.18 36.08a12.93 12.93 0 005.15 1.72 17 17 0 005.55-.25 22.53 22.53 0 005.28-1.95c.84-.43 1.62-1 2.44-1.43l2.3-1.68-2.23 1.78c-.8.51-1.56 1.08-2.39 1.55a22.27 22.27 0 01-5.28 2.21 17.65 17.65 0 01-5.75.52 13.67 13.67 0 01-5.63-1.64.5.5 0 01-.19-.68.5.5 0 01.68-.19zm-.33 5.92a22.67 22.67 0 013.6.1 21 21 0 013.52.66 14.91 14.91 0 013.29 1.39 10.38 10.38 0 012.64 2.34 10 10 0 00-2.76-2.12 14.86 14.86 0 00-3.29-1.12 20 20 0 00-3.45-.4 21.8 21.8 0 00-3.44.14.49.49 0 01-.56-.43.5.5 0 01.43-.56z" fill="#c5e89e"/>
      <path class="cls-4" d="M283.06 438.09l4.06-45H163.06l4.06 45h115.94z"/>
      <path class="cls-12" d="M173.36 393.09h-.53c-3.41.21-6.5 4.35-8.78 11l3.07 34h18.82q.15-2.94.15-6c0-21.29-5.68-38.57-12.73-39z"/>
      <path class="cls-7" d="M186.09 432.07q0 3.07.16 6h25.69q.15-2.94.15-6c0-21.27-5.68-38.55-12.73-39h-.53c-7.06.45-12.74 17.73-12.74 39z"/>
      <path class="cls-12" d="M212.09 432.07q0 3.07.16 6h25.69q.15-2.94.15-6c0-21.27-5.68-38.55-12.73-39h-.53c-7.06.45-12.74 17.73-12.74 39z"/>
      <path class="cls-7" d="M238.09 432.07q0 3.07.16 6h25.69q.15-2.94.15-6c0-21.27-5.68-38.55-12.73-39h-.53c-7.06.45-12.74 17.73-12.74 39z"/>
      <path class="cls-12" d="M286.13 404.07c-2.28-6.63-5.37-10.77-8.77-11h-.53c-7.06.43-12.74 17.71-12.74 39q0 3.07.16 6h18.81z"/>
      <path d="M159.34 331.09l-1.39 29m8.13-29l-.84 29m6.12-29v29m5.16-29v29m5.73-29v29m5.94-29l2.16 29m4.23-29l.36 29m6.39-29l-1.53 29m5.85-29l.45 29m6.75-29l.36 29m6.48-29l.36 29m5.79-29l1.41 29m5.4-29l.9 29m7.56-29v29m8.28-29v29m6.95-29v29m8.53-29l-.81 29m9.27-29l-.72 29m8.19-29l-1.26 29m6.75-29v29m6.75-29l-.45 29" stroke-miterlimit="10" stroke-width="2" stroke="#fda01f" fill="none"/>
      <path class="cls-14" d="M52.82 145.08A76.75 76.75 0 0154 153c.31 2.64.49 5.28.65 7.92s.23 5.29.21 7.94a78.83 78.83 0 01-.35 8 79 79 0 01-1.21-7.88c-.3-2.64-.48-5.28-.64-7.92s-.23-5.29-.21-7.94.1-5.37.37-8.04z"/>
      <path class="cls-14" d="M69.53 160.09a79 79 0 01-7.88 1.2c-2.64.31-5.28.49-7.92.65s-5.29.23-7.94.21a78.83 78.83 0 01-8-.35 79 79 0 017.88-1.21c2.64-.3 5.28-.48 7.92-.64s5.29-.23 7.94-.21 5.34.08 8 .35zm4.22 4.43a38 38 0 011.07 5.3c.24 1.77.41 3.55.51 5.33s.11 3.56.06 5.35a36.35 36.35 0 01-.49 5.38 36.29 36.29 0 01-1.06-5.3c-.25-1.77-.42-3.54-.51-5.32s-.12-3.57-.07-5.35a38 38 0 01.49-5.39z"/>
      <path class="cls-14" d="M85 174.63a36.56 36.56 0 01-5.3 1.06c-1.77.24-3.55.42-5.33.51s-3.56.12-5.35.07a36.35 36.35 0 01-5.38-.49 36.33 36.33 0 015.3-1.07c1.77-.24 3.54-.41 5.32-.5s3.57-.12 5.35-.07a36.61 36.61 0 015.39.49zm277.07 77.19a78.74 78.74 0 011.21 7.89c.3 2.63.48 5.28.64 7.92s.23 5.29.21 7.94a78.83 78.83 0 01-.35 8 78.74 78.74 0 01-1.21-7.89c-.3-2.63-.48-5.27-.64-7.91s-.22-5.29-.21-7.95.08-5.33.35-8z"/>
      <path class="cls-14" d="M378.79 266.83c-2.62.55-5.26.91-7.89 1.2s-5.28.49-7.92.65-5.29.22-7.94.21-5.31-.08-8-.35a79 79 0 017.88-1.21c2.64-.3 5.28-.49 7.92-.65s5.29-.22 7.94-.2a79 79 0 018.01.35zm4.21 4.43a36.6 36.6 0 011.07 5.3c.24 1.77.41 3.55.51 5.33s.11 3.56.07 5.35a36.37 36.37 0 01-.5 5.38 36.56 36.56 0 01-1.06-5.3c-.24-1.77-.42-3.55-.51-5.33s-.11-3.56-.06-5.35a37.86 37.86 0 01.48-5.38z"/>
      <path class="cls-14" d="M394.26 281.37a36.56 36.56 0 01-5.3 1.06c-1.77.24-3.55.42-5.33.51s-3.56.12-5.35.07a36.35 36.35 0 01-5.38-.49 35.3 35.3 0 015.3-1.07c1.77-.24 3.55-.42 5.33-.51s3.56-.11 5.35-.06a36.47 36.47 0 015.38.49zM376.18 63.44a47.78 47.78 0 01-6.1 1.06q-3.06.36-6.14.5c-2 .1-4.09.11-6.15.06a46.23 46.23 0 01-6.18-.5 47.93 47.93 0 016.11-1.06c2-.24 4.09-.41 6.13-.5s4.1-.11 6.16-.06a49.49 49.49 0 016.17.5z"/>
      <path class="cls-14" d="M364.46 76.29a47.93 47.93 0 01-1.06-6.11c-.24-2-.41-4.09-.5-6.13s-.11-4.1-.06-6.15a46 46 0 01.5-6.18 47.78 47.78 0 011.06 6.1q.36 3.06.5 6.14t.06 6.15a49.8 49.8 0 01-.5 6.18zm-25.29-7.93a36.58 36.58 0 011.1 5.29c.25 1.77.44 3.55.54 5.33s.14 3.56.1 5.35a36.41 36.41 0 01-.46 5.38 36.3 36.3 0 01-1.1-5.29c-.25-1.77-.43-3.55-.54-5.32s-.13-3.57-.09-5.36a37.79 37.79 0 01.45-5.38z"/>
      <path class="cls-14" d="M350.49 78.4a36.54 36.54 0 01-5.29 1.09c-1.77.26-3.55.44-5.33.54s-3.56.14-5.35.1a36.29 36.29 0 01-5.38-.46 36.27 36.27 0 015.29-1.09c1.77-.26 3.54-.44 5.32-.54s3.57-.14 5.35-.1a36.54 36.54 0 015.39.46z"/>
      <path d="M343.13 337.53l-12.07 44.69a38.76 38.76 0 01-1.38-4.55l10-36.93a33.17 33.17 0 013.45-3.21zm-8.51 9.68l-6.06 22.44a39.33 39.33 0 016.06-22.44zm14.99-13.98l-15.11 56a31.85 31.85 0 01-1.75-3.18l13.77-51a25.34 25.34 0 013.09-1.82zm6.22-2.66l-17.29 64.05a24.09 24.09 0 01-2-2.38l16.35-60.6a25.42 25.42 0 012.94-1.07zm5.9-1.46l-18.82 69.74a26.68 26.68 0 01-2.1-1.9L359 329.67l.39-.1c.75-.18 1.55-.33 2.34-.46zm5.51-.52l-19.83 73.48c-.76-.46-1.49-.95-2.21-1.48l19.4-71.85a23.36 23.36 0 012.64-.15zm5.27.2l-20.44 75.74a23.44 23.44 0 01-2.31-1.12L370 328.62a23.92 23.92 0 012.51.17zm5.26.92l-20.7 76.67a21.61 21.61 0 01-2.39-.8l20.62-76.4c.83.14 1.7.32 2.47.53zm5.09 1.64l-20.57 76.2c-.83-.12-1.65-.26-2.49-.46l20.68-76.59a19.2 19.2 0 012.38.85zm4.95 2.35L367.75 408c-.86 0-1.74-.05-2.58-.12l20.35-75.4c.76.39 1.54.79 2.29 1.22zm4.67 3.09l-19.14 70.88a22.09 22.09 0 01-2.68.26l19.63-72.7a23.57 23.57 0 012.19 1.56zm4.45 3.99l-17.73 65.68c-.68.2-1.36.39-2 .55-.25.06-.52.11-.77.15l18.47-68.4c.68.64 1.36 1.29 2.03 2.02zm4.07 4.95l-15.8 58.5a24.4 24.4 0 01-2.94 1.24l16.82-62.32a24.31 24.31 0 011.92 2.58zm3.56 6.4l-13.06 48.39a31.54 31.54 0 01-3.16 2l14.53-53.84a32.75 32.75 0 011.69 3.45zm2.9 9.57l-8.62 31.93a32.36 32.36 0 01-3.65 3.86l11.05-40.94c.27.91.54 1.86.75 2.81.18.78.33 1.58.47 2.34zm-3.74 24.45l4.22-15.61a39.14 39.14 0 01-4.22 15.61z" fill="#ffedc5"/>
      <ellipse class="cls-16" cx="336.45" cy="436.86" rx="19.68" ry="34.1"/>
      <path class="cls-4" d="M353.33 451.86c2.8-6.46.69-10.42.69-15 0-9.63-3.22-20.53-9-27.37a52.49 52.49 0 00-2.46 15.13c.04 9.63 5.03 20.38 10.77 27.24z"/>
      <ellipse class="cls-17" cx="366.73" cy="424.69" rx="19.68" ry="34.1"/>
      <path class="cls-4" d="M318.42 437.93c0 3.81-1.55 6.85.56 12 9-7.22 15.83-19.32 15.83-31.79a55.47 55.47 0 00-1.9-13c-9.05 7.15-14.49 20.32-14.49 32.79z"/>
      <ellipse class="cls-17" cx="311.62" cy="416.18" rx="19.68" ry="34.1"/>
      <path class="cls-16" d="M336.45 470.96v-51.14m0 20.03l-7.97-9.11m7.97 19.99l-11.48-13.13m11.48 24.34l-11.86-13.56m11.86-8.51l9.67-11.05m-9.67 21.93l11.86-13.56m-11.86 24.78l11.86-13.57"/>
      <ellipse class="cls-18" cx="311.62" cy="416.18" rx="19.68" ry="34.1"/>
      <path class="cls-18" d="M311.62 399.14v71.95m0-51.92l-9.65-11.03m9.65 21.91l-11.86-13.56m11.86 24.77l-11.86-13.56m11.86-8.51l9.66-11.05m-9.66 21.93l11.86-13.56m-11.86 24.78l11.86-13.57"/>
      <ellipse class="cls-19" cx="366.73" cy="424.69" rx="19.68" ry="34.1"/>
      <path class="cls-19" d="M366.73 407.65v63.44m0-43.41l-9.64-11.03m9.64 21.91L354.87 425m11.86 24.77l-11.86-13.56m11.86-8.51l9.67-11.05m-9.67 21.93l11.86-13.56m-11.86 24.77l11.86-13.56"/>
      <path class="cls-1" d="M305.7 75.49l-88.86-19.15a7.45 7.45 0 01-5.84-7.29V8a7.46 7.46 0 017.41-7.5h88.87a7.46 7.46 0 017.45 7.5v60.21a7.45 7.45 0 01-9.03 7.28z"/>
      <path class="cls-1" d="M219.27 56.87l3.48 9.75L238.47 61l-19.2-4.13z"/>
      <path class="cls-8" d="M237.82 61.23l.65-.23-19.2-4.13 1.23 3.45 17.32.91zm25.07-11.79h-2.85l-3.79-36.88 9.56-2.05-2.92 38.93z"/>
      <circle class="cls-8" cx="261.3" cy="54.63" r="2.24"/>
      <path stroke="#545454" stroke-linecap="round" stroke-linejoin="round" fill="none" d="M44.7 471.09h389.82"/>
    </g>
  </g>
</svg>
