<svg id="SvgjsSvg1001" width="288" height="288" xmlns="http://www.w3.org/2000/svg" version="1.1" xmlns:xlink="http://www.w3.org/1999/xlink" xmlns:svgjs="http://svgjs.com/svgjs"><defs id="SvgjsDefs1002"></defs><g id="SvgjsG1008" transform="matrix(0.9167,0,0,0.9167,11.995200000000011,11.995200000000011)"><svg xmlns="http://www.w3.org/2000/svg" width="288" height="288" fill="none" viewBox="0 0 24 24"><path fill="#008ef9" d="M12 3C10.8954 3 10 3.89543 10 5V5.34141C7.66962 6.16508 6 8.38756 6 11V16H5C4.44772 16 4 16.4477 4 17 4 17.5523 4.44772 18 5 18H19C19.5523 18 20 17.5523 20 17 20 16.4477 19.5523 16 19 16H18V11C18 8.38756 16.3304 6.16508 14 5.34141V5C14 3.89543 13.1046 3 12 3zM12 21C10.8954 21 10 20.1046 10 19H14C14 20.1046 13.1046 21 12 21z" class="color000 svgShape"></path></svg></g></svg>