<?xml version="1.0" encoding="iso-8859-1"?>
<!-- Generator: Adobe Illustrator 23.0.2, SVG Export Plug-In . SVG Version: 6.00 Build 0)  -->
<svg version="1.1" id="Layer_1" xmlns="http://www.w3.org/2000/svg" xmlns:xlink="http://www.w3.org/1999/xlink" x="0px" y="0px"
	 viewBox="0 0 1000 1000" style="enable-background:new 0 0 1000 1000;" xml:space="preserve">
<g>
	<ellipse id="XMLID_2_" style="fill:#8FE3F9;" cx="501.756" cy="487.5" rx="228" ry="205.781"/>
	<ellipse id="XMLID_188_" style="fill:#8FE3F9;" cx="501.756" cy="487.5" rx="228" ry="205.781"/>
	<path id="XMLID_193_" style="fill:#B2EBF9;" d="M507.756,689.281c52.113,0,100.131-15.299,138.531-41.025l-10.48-24.748
		c-21.986-51.92-74.171-85.826-132.097-85.826l0,0c-57.926,0-110.111,33.906-132.097,85.826l-8.646,20.417
		C402.344,672.263,452.777,689.281,507.756,689.281z"/>
	<path id="XMLID_189_" style="fill:#A4E0EA;" d="M501.745,470.281l-43.632,64l32.927,43.825c5.444,7.246,16.326,7.223,21.739-0.047
		l32.598-43.778L501.745,470.281z"/>
	<path id="XMLID_192_" style="fill:#7AD1E5;" d="M501.756,669.281c-121.456,0-220.718-85.718-227.604-193.781
		c-0.253,3.972-0.396,7.971-0.396,12c0,113.65,102.079,205.781,228,205.781s228-92.131,228-205.781c0-4.029-0.142-8.028-0.396-12
		C722.474,583.563,623.212,669.281,501.756,669.281z"/>
	<path id="XMLID_76_" style="fill:#A4E0EA;" d="M638.569,628.123c-38.107,25.842-85.476,41.158-136.813,41.158
		c-49.968,0-96.172-14.518-133.74-39.122l-5.049,12.306c39.377,29.25,89.809,46.816,144.789,46.816
		c49.732,0,95.714-14.407,133.187-38.799c1.771-1.234,3.525-2.485,5.254-3.764L638.569,628.123z"/>
	<path id="XMLID_186_" style="fill:#7AD1E5;" d="M268.244,488.234c6.353,13.083,14.961,25.347,25.824,36.21
		c52.33,52.33,137.174,52.33,189.505,0c43.77-43.77,50.93-110.288,21.479-161.5"/>
	<path id="XMLID_185_" style="fill:#7AD1E5;" d="M729.048,503.842c-24.012,36.076-65.045,59.849-111.631,59.849
		c-74.006,0-134-59.994-134-134c0-33.018,11.942-63.246,31.742-86.602"/>
	
		<ellipse id="XMLID_75_" style="fill:none;stroke:#413D51;stroke-width:16;stroke-linecap:round;stroke-linejoin:round;stroke-miterlimit:10;" cx="501.756" cy="487.5" rx="228" ry="205.781"/>
	<polygon id="XMLID_74_" style="fill:#413D51;" points="501.745,442.281 458.113,506.281 501.94,564.614 545.377,506.281 	"/>
	
		<polygon id="XMLID_73_" style="fill:none;stroke:#413D51;stroke-width:16;stroke-linecap:round;stroke-linejoin:round;stroke-miterlimit:10;" points="
		501.745,442.281 458.113,506.281 501.94,564.614 545.377,506.281 	"/>
	<path id="XMLID_72_" style="fill:#413D51;" d="M600.71,303.85c-30-14.022-64.127-21.902-100-21.902s-70,7.88-100,21.902v140.098
		h200V303.85z"/>
	<g id="XMLID_58_">
		<path id="XMLID_71_" style="fill:#413D51;" d="M613.458,317.918l108.746-3.293c-15.728,39.288-17.829,98.44-4.068,163.02
			c-17.418,36.846-54.366,62.852-97.898,64.17l0,0c-61.827,1.872-113.466-46.731-115.338-108.559l0,0
			C503.028,371.429,551.631,319.79,613.458,317.918z"/>
		
			<path id="XMLID_70_" style="fill:none;stroke:#413D51;stroke-width:16;stroke-linecap:round;stroke-linejoin:round;stroke-miterlimit:10;" d="
			M613.458,317.918l108.746-3.293c-15.728,39.288-17.829,98.44-4.068,163.02c-17.418,36.846-54.366,62.852-97.898,64.17l0,0
			c-61.827,1.872-113.466-46.731-115.338-108.559l0,0C503.028,371.429,551.631,319.79,613.458,317.918z"/>
		<circle id="XMLID_69_" style="fill:#F7E8AD;" cx="617.418" cy="429.691" r="111.972"/>
		<circle id="XMLID_5_" style="fill:#F7E8AD;" cx="617.418" cy="429.691" r="111.972"/>
		<path id="XMLID_86_" style="fill:#F7D6A1;" d="M696.594,350.515c-21.541-21.541-49.674-32.447-77.905-32.766
			c21.215,4.085,41.478,14.338,57.905,30.766c43.728,43.728,43.728,114.625,0,158.353c-22.187,22.187-51.369,33.094-80.447,32.766
			c35.257,6.788,73.147-3.465,100.447-30.766C740.322,465.14,740.322,394.243,696.594,350.515z"/>
		
			<ellipse id="XMLID_3_" transform="matrix(0.7071 -0.7071 0.7071 0.7071 -130.8246 543.5441)" style="opacity:0.7;fill:#FFFFFF;" cx="590.703" cy="429.691" rx="84" ry="84.597"/>
		<path id="XMLID_12_" style="fill:#EFCA92;" d="M711.377,376.614c-3.082-4.001-9.075-15.026-12.771-18.672
			c-44.023-43.431-114.918-42.951-158.349,1.072c-8.618,8.736-15.478,18.54-20.641,28.967
			C581.445,366.336,649.029,371.498,711.377,376.614z"/>
		
			<circle id="XMLID_68_" style="fill:none;stroke:#413D51;stroke-width:16;stroke-linecap:round;stroke-linejoin:round;stroke-miterlimit:10;" cx="617.418" cy="429.691" r="111.972"/>
		
			<circle id="XMLID_67_" style="fill:none;stroke:#413D51;stroke-width:16;stroke-linecap:round;stroke-linejoin:round;stroke-miterlimit:10;" cx="617.418" cy="429.691" r="111.972"/>
		<path id="XMLID_66_" style="fill:#413D51;" d="M706.655,362.085c-3.055-4.022-6.39-7.899-10.061-11.571
			c-43.728-43.728-114.625-43.728-158.352,0c-8.677,8.677-15.603,18.434-20.836,28.826
			C579.38,358.115,644.344,356.547,706.655,362.085z"/>
		<circle id="XMLID_57_" style="fill:#413D51;" cx="562.886" cy="438.145" r="42"/>
		<circle id="XMLID_56_" style="fill:#FFFFFF;" cx="539.077" cy="438.402" r="14"/>
	</g>
	<g id="XMLID_26_">
		<path id="XMLID_89_" style="fill:#413D51;" d="M388.779,317.918l-108.746-3.293c15.728,39.288,17.829,98.44,4.068,163.02
			c17.418,36.846,54.366,62.852,97.898,64.17l0,0c61.827,1.872,113.466-46.731,115.338-108.559l0,0
			C499.21,371.429,450.606,319.79,388.779,317.918z"/>
		
			<path id="XMLID_88_" style="fill:none;stroke:#413D51;stroke-width:16;stroke-linecap:round;stroke-linejoin:round;stroke-miterlimit:10;" d="
			M388.779,317.918l-108.746-3.293c15.728,39.288,17.829,98.44,4.068,163.02c17.418,36.846,54.366,62.852,97.898,64.17l0,0
			c61.827,1.872,113.466-46.731,115.338-108.559l0,0C499.21,371.429,450.606,319.79,388.779,317.918z"/>
		<circle id="XMLID_87_" style="fill:#F7E8AD;" cx="384.82" cy="429.691" r="111.972"/>
		<circle id="XMLID_84_" style="fill:#F7E8AD;" cx="384.82" cy="429.691" r="111.972"/>
		<path id="XMLID_65_" style="fill:#F7D6A1;" d="M305.644,350.515c21.541-21.541,49.674-32.447,77.905-32.766
			c-21.215,4.085-41.478,14.338-57.905,30.766c-43.728,43.728-43.728,114.625,0,158.353c22.187,22.187,51.369,33.094,80.447,32.766
			c-35.257,6.788-73.147-3.465-100.447-30.766C261.916,465.14,261.916,394.243,305.644,350.515z"/>
		
			<ellipse id="XMLID_64_" transform="matrix(0.7071 -0.7071 0.7071 0.7071 -183.3021 416.8521)" style="opacity:0.7;fill:#FFFFFF;" cx="411.534" cy="429.691" rx="84.597" ry="84"/>
		<path id="XMLID_63_" style="opacity:0.89;fill:#EFCA92;" d="M290.861,376.614c3.082-4.001,9.075-15.026,12.771-18.672
			c44.023-43.431,114.918-42.951,158.349,1.072c8.618,8.736,15.478,18.54,20.641,28.967
			C420.792,366.336,353.208,371.498,290.861,376.614z"/>
		
			<circle id="XMLID_62_" style="fill:none;stroke:#413D51;stroke-width:16;stroke-linecap:round;stroke-linejoin:round;stroke-miterlimit:10;" cx="384.82" cy="429.691" r="111.972"/>
		
			<circle id="XMLID_61_" style="fill:none;stroke:#413D51;stroke-width:16;stroke-linecap:round;stroke-linejoin:round;stroke-miterlimit:10;" cx="384.82" cy="429.691" r="111.972"/>
		<path id="XMLID_60_" style="fill:#413D51;" d="M295.582,362.085c3.055-4.022,6.39-7.899,10.062-11.571
			c43.728-43.728,114.625-43.728,158.352,0c8.677,8.677,15.603,18.434,20.836,28.826
			C422.858,358.115,357.893,356.547,295.582,362.085z"/>
		<circle id="XMLID_59_" style="fill:#413D51;" cx="439.352" cy="438.145" r="42"/>
		<circle id="XMLID_37_" style="fill:#FFFFFF;" cx="463.16" cy="438.402" r="14"/>
	</g>
	<path id="XMLID_19_" style="fill:#413D51;" d="M447.922,718.281L447.922,718.281c-8.837,0-16-7.163-16-16v-18
		c0-8.837,7.163-16,16-16h0c8.837,0,16,7.163,16,16v18C463.922,711.117,456.759,718.281,447.922,718.281z"/>
	<path id="XMLID_17_" style="fill:#413D51;" d="M415.922,718.281L415.922,718.281c-8.837,0-16-7.163-16-16v-18
		c0-8.837,7.163-16,16-16h0c8.837,0,16,7.163,16,16v18C431.922,711.117,424.759,718.281,415.922,718.281z"/>
	<path id="XMLID_16_" style="fill:#413D51;" d="M479.694,718.281L479.694,718.281c-8.837,0-16-7.163-16-16v-18
		c0-8.837,7.163-16,16-16h0c8.837,0,16,7.163,16,16v18C495.694,711.117,488.531,718.281,479.694,718.281z"/>
	<path id="XMLID_15_" style="fill:#413D51;" d="M521.91,718.281L521.91,718.281c-8.837,0-16-7.163-16-16v-18c0-8.837,7.163-16,16-16
		h0c8.837,0,16,7.163,16,16v18C537.91,711.117,530.747,718.281,521.91,718.281z"/>
	<path id="XMLID_14_" style="fill:#413D51;" d="M553.682,718.281L553.682,718.281c-8.837,0-16-7.163-16-16v-18
		c0-8.837,7.163-16,16-16h0c8.837,0,16,7.163,16,16v18C569.682,711.117,562.518,718.281,553.682,718.281z"/>
	<path id="XMLID_13_" style="fill:#413D51;" d="M585.682,718.281L585.682,718.281c-8.837,0-16-7.163-16-16v-18
		c0-8.837,7.163-16,16-16h0c8.836,0,16,7.163,16,16v18C601.682,711.117,594.518,718.281,585.682,718.281z"/>
	
		<path id="XMLID_11_" style="fill:none;stroke:#413D51;stroke-width:8;stroke-linecap:round;stroke-linejoin:round;stroke-miterlimit:10;" d="
		M491.912,587.563c0,8.409-6.817,15.226-15.226,15.226c-8.409,0-15.226-6.817-15.226-15.226"/>
	
		<path id="XMLID_9_" style="fill:none;stroke:#413D51;stroke-width:8;stroke-linecap:round;stroke-linejoin:round;stroke-miterlimit:10;" d="
		M538.421,587.563c0,8.409-6.817,15.226-15.226,15.226c-8.409,0-15.226-6.817-15.226-15.226"/>
	
		<path id="XMLID_10_" style="opacity:0.31;fill:none;stroke:#72C8D6;stroke-width:8;stroke-linecap:round;stroke-linejoin:round;stroke-miterlimit:10;" d="
		M323.043,548.755c-2.163,4.728-7.749,6.807-12.477,4.645s-6.807-7.749-4.645-12.477"/>
	
		<path id="XMLID_1_" style="opacity:0.31;fill:none;stroke:#72C8D6;stroke-width:8;stroke-linecap:round;stroke-linejoin:round;stroke-miterlimit:10;" d="
		M352.761,564.286c-2.163,4.728-7.749,6.807-12.477,4.645c-4.728-2.163-6.807-7.749-4.645-12.477"/>
	
		<path id="XMLID_78_" style="opacity:0.31;fill:none;stroke:#72C8D6;stroke-width:8;stroke-linecap:round;stroke-linejoin:round;stroke-miterlimit:10;" d="
		M335.502,576.151c-2.163,4.728-7.749,6.807-12.477,4.645c-4.728-2.163-6.807-7.749-4.645-12.477"/>
	
		<path id="XMLID_77_" style="opacity:0.31;fill:none;stroke:#72C8D6;stroke-width:8;stroke-linecap:round;stroke-linejoin:round;stroke-miterlimit:10;" d="
		M361.651,596.113c-2.163,4.728-7.749,6.807-12.477,4.645c-4.728-2.163-6.807-7.749-4.645-12.477"/>
	
		<path id="XMLID_79_" style="opacity:0.31;fill:none;stroke:#72C8D6;stroke-width:8;stroke-linecap:round;stroke-linejoin:round;stroke-miterlimit:10;" d="
		M381.651,578.113c-2.163,4.728-7.749,6.807-12.477,4.645c-4.728-2.163-6.807-7.749-4.645-12.477"/>
	
		<path id="XMLID_85_" style="opacity:0.31;fill:none;stroke:#72C8D6;stroke-width:8;stroke-linecap:round;stroke-linejoin:round;stroke-miterlimit:10;" d="
		M683.674,550.755c2.163,4.728,7.749,6.807,12.477,4.645s6.807-7.749,4.645-12.477"/>
	
		<path id="XMLID_83_" style="opacity:0.31;fill:none;stroke:#72C8D6;stroke-width:8;stroke-linecap:round;stroke-linejoin:round;stroke-miterlimit:10;" d="
		M653.956,566.286c2.163,4.728,7.749,6.807,12.477,4.645c4.728-2.163,6.807-7.749,4.645-12.477"/>
	
		<path id="XMLID_82_" style="opacity:0.31;fill:none;stroke:#72C8D6;stroke-width:8;stroke-linecap:round;stroke-linejoin:round;stroke-miterlimit:10;" d="
		M671.215,578.151c2.163,4.728,7.749,6.807,12.477,4.645c4.728-2.163,6.807-7.749,4.645-12.477"/>
	
		<path id="XMLID_81_" style="opacity:0.31;fill:none;stroke:#72C8D6;stroke-width:8;stroke-linecap:round;stroke-linejoin:round;stroke-miterlimit:10;" d="
		M645.066,598.113c2.163,4.728,7.749,6.807,12.477,4.645c4.728-2.163,6.807-7.749,4.645-12.477"/>
	
		<path id="XMLID_80_" style="opacity:0.31;fill:none;stroke:#72C8D6;stroke-width:8;stroke-linecap:round;stroke-linejoin:round;stroke-miterlimit:10;" d="
		M625.066,580.113c2.163,4.728,7.749,6.807,12.477,4.645c4.728-2.163,6.807-7.749,4.645-12.477"/>
	
		<path id="XMLID_8_" style="fill:none;stroke:#413D51;stroke-width:8;stroke-linecap:round;stroke-linejoin:round;stroke-miterlimit:10;" d="
		M468.657,624.106c0,8.409-6.817,15.226-15.226,15.226c-8.409,0-15.226-6.817-15.226-15.226"/>
	
		<path id="XMLID_7_" style="fill:none;stroke:#413D51;stroke-width:8;stroke-linecap:round;stroke-linejoin:round;stroke-miterlimit:10;" d="
		M515.167,624.106c0,8.409-6.817,15.226-15.226,15.226s-15.226-6.817-15.226-15.226"/>
	
		<path id="XMLID_6_" style="fill:none;stroke:#413D51;stroke-width:8;stroke-linecap:round;stroke-linejoin:round;stroke-miterlimit:10;" d="
		M561.676,624.106c0,8.409-6.817,15.226-15.226,15.226c-8.409,0-15.226-6.817-15.226-15.226"/>
</g>
</svg>
