<?xml version="1.0" encoding="UTF-8" standalone="no"?>
<svg
   xmlns:dc="http://purl.org/dc/elements/1.1/"
   xmlns:cc="http://creativecommons.org/ns#"
   xmlns:rdf="http://www.w3.org/1999/02/22-rdf-syntax-ns#"
   xmlns:svg="http://www.w3.org/2000/svg"
   xmlns="http://www.w3.org/2000/svg"
   xmlns:sodipodi="http://sodipodi.sourceforge.net/DTD/sodipodi-0.dtd"
   xmlns:inkscape="http://www.inkscape.org/namespaces/inkscape"
   enable-background="new 0 0 48 48"
   viewBox="0 0 48 48"
   version="1.1"
   id="svg874"
   sodipodi:docname="star.svg"
   inkscape:version="0.92.3 (2405546, 2018-03-11)">
  <metadata
     id="metadata880">
    <rdf:RDF>
      <cc:Work
         rdf:about="">
        <dc:format>image/svg+xml</dc:format>
        <dc:type
           rdf:resource="http://purl.org/dc/dcmitype/StillImage" />
      </cc:Work>
    </rdf:RDF>
  </metadata>
  <defs
     id="defs878" />
  <sodipodi:namedview
     pagecolor="#ffffff"
     bordercolor="#666666"
     borderopacity="1"
     objecttolerance="10"
     gridtolerance="10"
     guidetolerance="10"
     inkscape:pageopacity="0"
     inkscape:pageshadow="2"
     inkscape:window-width="1853"
     inkscape:window-height="1025"
     id="namedview876"
     showgrid="false"
     inkscape:zoom="17.583333"
     inkscape:cx="24"
     inkscape:cy="21.725118"
     inkscape:window-x="67"
     inkscape:window-y="27"
     inkscape:window-maximized="1"
     inkscape:current-layer="svg874" />
  <path
     d="M12.93,29.58l-2.27,13.24c-0.06,0.38,0.09,0.75,0.4,0.98c0.31,0.22,0.72,0.25,1.05,0.08L24,37.63l11.89,6.25   c0.15,0.08,0.31,0.11,0.46,0.11c0.21,0,0.41-0.06,0.59-0.19c0.31-0.22,0.46-0.6,0.4-0.98l-2.27-13.24l9.62-9.38   c0.27-0.27,0.37-0.66,0.25-1.03c-0.12-0.36-0.43-0.63-0.81-0.68l-13.3-1.93L24.9,4.52c-0.34-0.68-1.46-0.68-1.79,0l-5.95,12.05   L3.86,18.5c-0.38,0.05-0.69,0.32-0.81,0.68s-0.02,0.76,0.25,1.03L12.93,29.58z M17.96,18.47c0.33-0.05,0.61-0.25,0.75-0.55L24,7.22   l5.28,10.7c0.15,0.3,0.43,0.5,0.75,0.55l11.81,1.72l-8.55,8.33c-0.24,0.23-0.34,0.56-0.29,0.89l2.02,11.76l-10.56-5.55   c-0.29-0.15-0.64-0.15-0.93,0l-10.56,5.55l2.02-11.76c0.06-0.32-0.05-0.66-0.29-0.89l-8.55-8.33L17.96,18.47z"
     id="path872"
     style="fill:#008ef9;stroke:#000000;stroke-opacity:1;fill-opacity:1;stroke-width:0;stroke-miterlimit:4;stroke-dasharray:none" />
</svg>
