<svg id="SvgjsSvg1012" width="288" height="288" xmlns="http://www.w3.org/2000/svg" version="1.1" xmlns:xlink="http://www.w3.org/1999/xlink" xmlns:svgjs="http://svgjs.com/svgjs"><defs id="SvgjsDefs1013"></defs><g id="SvgjsG1014" transform="matrix(0.9167,0,0,0.9167,12.007694491577155,11.99520508422853)"><svg xmlns="http://www.w3.org/2000/svg" data-name="Layer 1" viewBox="0 0 48 48" width="288" height="288"><path fill="#0071c6" d="M31.64,27.72a13.94,13.94,0,0,1-15.28,0A18,18,0,0,0,6.05,42.94a1,1,0,0,0,.27.75,1,1,0,0,0,.73.31H41a1,1,0,0,0,.73-.31,1,1,0,0,0,.27-.75A18,18,0,0,0,31.64,27.72Z" class="color42c3cf svgShape"></path><circle cx="24" cy="16" r="12" fill="#0071c6" class="color42c3cf svgShape"></circle></svg></g></svg>